<svg width="24" height="25" viewBox="0 0 24 25" fill="none" xmlns="http://www.w3.org/2000/svg">
<path d="M16.3896 1.71094H6.74351C6.2642 1.71094 5.80453 1.9112 5.46561 2.26768C5.12669 2.62416 4.93629 3.10765 4.93629 3.61178V11.2152C4.93629 12.131 5.10788 13.038 5.44125 13.8841C5.77462 14.7302 6.26323 15.4989 6.87918 16.1463C7.49512 16.7937 8.22632 17.3071 9.03098 17.6572C9.83565 18.0073 10.698 18.1871 11.5688 18.1865C13.3266 18.1865 15.0125 17.452 16.2555 16.1446C17.4985 14.8373 18.1968 13.0641 18.1968 11.2152V3.61178C18.1968 3.10765 18.0064 2.62416 17.6675 2.26768C17.3285 1.9112 16.8689 1.71094 16.3896 1.71094ZM1.48901 8.67753C1.4908 9.60155 1.80856 10.4941 2.38423 11.192C2.95991 11.89 3.75509 12.3469 4.62454 12.4792V4.87584C3.75431 5.00629 2.95805 5.46262 2.38203 6.16102C1.80601 6.85941 1.48892 7.75297 1.48901 8.67753ZM18.5176 4.87584V12.4792C19.383 12.3423 20.173 11.8833 20.744 11.1857C21.3149 10.488 21.629 9.59805 21.629 8.67753C21.629 7.75701 21.3149 6.86705 20.744 6.16941C20.173 5.47177 19.383 5.01277 18.5176 4.87584Z" fill="#FFAF37"/>
<path d="M18.5948 4.46237V3.61174C18.5948 2.99499 18.3621 2.40344 17.9479 1.96689C17.5337 1.53034 16.9718 1.28446 16.3854 1.2832H6.73939C6.44888 1.2832 6.16122 1.34347 5.89287 1.46054C5.62453 1.57762 5.38078 1.74922 5.17556 1.9655C4.97035 2.18179 4.8077 2.43852 4.69694 2.72101C4.58618 3.00349 4.52947 3.30617 4.53006 3.61174V4.46712C3.57987 4.63654 2.71777 5.15544 2.09751 5.93127C1.47724 6.70711 1.13913 7.68945 1.14347 8.70312C1.14782 9.71679 1.49432 10.6959 2.12121 11.4658C2.74809 12.2357 3.6146 12.7465 4.56621 12.9069H4.62042C4.65339 12.9118 4.68686 12.9118 4.71982 12.9069C5.06434 14.4608 5.87751 15.8558 7.03789 16.8836C8.19826 17.9113 9.6436 18.5168 11.158 18.6094V22.0119C11.1604 22.0864 11.1823 22.1588 11.2213 22.221H6.73939C6.63275 22.221 6.53047 22.2656 6.45506 22.3449C6.37965 22.4242 6.33728 22.5318 6.33728 22.6439C6.33728 22.7561 6.37965 22.8637 6.45506 22.943C6.53047 23.0223 6.63275 23.0669 6.73939 23.0669H16.3854C16.4921 23.0669 16.5944 23.0223 16.6698 22.943C16.7452 22.8637 16.7875 22.7561 16.7875 22.6439C16.7875 22.5318 16.7452 22.4242 16.6698 22.3449C16.5944 22.2656 16.4921 22.221 16.3854 22.221H11.9035C11.9412 22.1584 11.9615 22.086 11.9623 22.0119V18.5904C13.4775 18.4987 14.9239 17.8938 16.0851 16.8659C17.2464 15.8381 18.0603 14.4425 18.405 12.8879C18.4395 12.8924 18.4744 12.8924 18.5089 12.8879H18.5631C19.5146 12.7269 20.3809 12.2156 21.0073 11.4453C21.6338 10.6751 21.9798 9.69576 21.9836 8.6821C21.9874 7.66844 21.6487 6.68631 21.0281 5.91084C20.4074 5.13537 19.545 4.61698 18.5948 4.44811V4.46237ZM1.87797 8.67749C1.88552 7.88727 2.1529 7.12417 2.6347 6.51779C3.1165 5.91141 3.78301 5.49914 4.52103 5.35101V11.2151C4.52231 11.4898 4.53739 11.7642 4.56621 12.0372C3.81664 11.895 3.13815 11.481 2.64867 10.8672C2.1592 10.2534 1.88969 9.47861 1.887 8.67749H1.87797ZM17.7905 11.2151C17.7468 12.9219 17.0715 14.5434 15.9083 15.7344C14.745 16.9254 13.1858 17.5918 11.5624 17.5918C9.93906 17.5918 8.37981 16.9254 7.21658 15.7344C6.05334 14.5434 5.37799 12.9219 5.33428 11.2151V3.61174C5.33428 3.21977 5.48232 2.84386 5.74583 2.5667C6.00934 2.28954 6.36673 2.13383 6.73939 2.13383H16.3854C16.7581 2.13383 17.1155 2.28954 17.379 2.5667C17.6425 2.84386 17.7905 3.21977 17.7905 3.61174V11.2151ZM18.5496 12.042C18.5784 11.7674 18.5935 11.4914 18.5948 11.2151V5.32725C19.3418 5.47523 20.0156 5.89441 20.4988 6.51165C20.9819 7.12889 21.2436 7.90497 21.2382 8.70446C21.2329 9.50395 20.9607 10.2761 20.4693 10.886C19.9779 11.496 19.2985 11.9051 18.5496 12.042Z" fill="#F7E363"/>
<path d="M6.74109 8.83878C6.68796 8.83753 6.6374 8.81446 6.60024 8.77449C6.56308 8.73452 6.54228 8.68083 6.5423 8.62493V4.87552C6.53795 4.84509 6.53989 4.81403 6.548 4.78447C6.55611 4.7549 6.57019 4.72753 6.58927 4.70421C6.60836 4.68089 6.632 4.66218 6.6586 4.64935C6.68519 4.63652 6.7141 4.62988 6.74335 4.62988C6.77261 4.62988 6.80152 4.63652 6.82811 4.64935C6.8547 4.66218 6.87834 4.68089 6.89743 4.70421C6.91652 4.72753 6.93059 4.7549 6.9387 4.78447C6.94681 4.81403 6.94875 4.84509 6.9444 4.87552V8.61068C6.94626 8.63993 6.94238 8.66928 6.933 8.6969C6.92362 8.72451 6.90894 8.7498 6.88987 8.77119C6.8708 8.79258 6.84775 8.80962 6.82216 8.82125C6.79657 8.83288 6.76897 8.83884 6.74109 8.83878Z" fill="white"/>
<path d="M11.3076 5.98902L9.04081 6.42394V5.46186L11.7162 4.90833H12.4938V14.0547H11.3076V5.98902Z" fill="white"/>
</svg>
