<svg width="24" height="25" viewBox="0 0 24 25" fill="none" xmlns="http://www.w3.org/2000/svg">
<path d="M16.4495 1.70996H6.76805C6.28699 1.70996 5.82563 1.91023 5.48546 2.26671C5.1453 2.62318 4.95419 3.10667 4.95419 3.61081V11.2142C4.95419 12.1301 5.12641 13.037 5.46101 13.8831C5.7956 14.7292 6.28601 15.4979 6.90422 16.1453C7.52242 16.7928 8.25631 17.3062 9.06393 17.6562C9.87155 18.0063 10.7371 18.1862 11.6111 18.1855C13.3754 18.1855 15.0674 17.451 16.315 16.1437C17.5625 14.8363 18.2634 13.0631 18.2634 11.2142V3.61081C18.2634 3.10667 18.0723 2.62318 17.7321 2.26671C17.3919 1.91023 16.9306 1.70996 16.4495 1.70996ZM1.49426 8.67655C1.49606 9.60057 1.81498 10.4931 2.39277 11.1911C2.97056 11.889 3.76866 12.3459 4.6413 12.4782V4.87487C3.76788 5.00531 2.96869 5.46165 2.39056 6.16004C1.81243 6.85844 1.49417 7.75199 1.49426 8.67655ZM18.5853 4.87487V12.4782C19.454 12.3413 20.2469 11.8823 20.8199 11.1847C21.393 10.487 21.7082 9.59708 21.7082 8.67655C21.7082 7.75603 21.393 6.86607 20.8199 6.16843C20.2469 5.47079 19.454 5.01179 18.5853 4.87487Z" fill="#D9793B"/>
<path d="M18.6629 4.46139V3.61076C18.6629 2.99402 18.4294 2.40246 18.0137 1.96592C17.598 1.52937 17.0339 1.28349 16.4454 1.28223H6.76397C6.47239 1.28223 6.18367 1.34249 5.91434 1.45957C5.64501 1.57665 5.40036 1.74824 5.19439 1.96453C4.98843 2.18081 4.82519 2.43755 4.71402 2.72003C4.60285 3.00251 4.54593 3.3052 4.54653 3.61076V4.46614C3.59284 4.63556 2.72758 5.15446 2.10504 5.9303C1.48249 6.70614 1.14315 7.68848 1.1475 8.70215C1.15186 9.71582 1.49964 10.6949 2.12883 11.4648C2.75801 12.2348 3.6277 12.7455 4.5828 12.9059H4.63722C4.67031 12.9108 4.70389 12.9108 4.73698 12.9059C5.08277 14.4598 5.89892 15.8548 7.06356 16.8826C8.2282 17.9104 9.67884 18.5158 11.1988 18.6084V22.0109C11.2012 22.0854 11.2232 22.1578 11.2623 22.22H6.76397C6.65693 22.22 6.55428 22.2646 6.47859 22.3439C6.4029 22.4232 6.36038 22.5308 6.36038 22.643C6.36038 22.7551 6.4029 22.8627 6.47859 22.942C6.55428 23.0213 6.65693 23.0659 6.76397 23.0659H16.4454C16.5525 23.0659 16.6551 23.0213 16.7308 22.942C16.8065 22.8627 16.849 22.7551 16.849 22.643C16.849 22.5308 16.8065 22.4232 16.7308 22.3439C16.6551 22.2646 16.5525 22.22 16.4454 22.22H11.9471C11.9848 22.1574 12.0053 22.085 12.006 22.0109V18.5894C13.5268 18.4978 14.9785 17.8928 16.144 16.8649C17.3096 15.8371 18.1264 14.4415 18.4724 12.8869C18.507 12.8914 18.5421 12.8914 18.5767 12.8869H18.6311C19.5861 12.7259 20.4555 12.2147 21.0843 11.4444C21.7131 10.6741 22.0603 9.69478 22.0641 8.68112C22.0679 7.66746 21.7281 6.68533 21.1051 5.90986C20.4822 5.13439 19.6166 4.61601 18.6629 4.44713V4.46139ZM1.88469 8.67651C1.89227 7.8863 2.16064 7.12319 2.64421 6.51681C3.12778 5.91043 3.79673 5.49817 4.53746 5.35003V11.2141C4.53875 11.4888 4.55388 11.7632 4.5828 12.0363C3.83048 11.894 3.1495 11.48 2.65823 10.8662C2.16696 10.2524 1.89646 9.47763 1.89376 8.67651H1.88469ZM17.8557 11.2141C17.8118 12.921 17.134 14.5425 15.9665 15.7334C14.799 16.9244 13.234 17.5908 11.6047 17.5908C9.97538 17.5908 8.41041 16.9244 7.2429 15.7334C6.0754 14.5425 5.39756 12.921 5.35369 11.2141V3.61076C5.35369 3.2188 5.50227 2.84288 5.76675 2.56572C6.03123 2.28856 6.38994 2.13285 6.76397 2.13285H16.4454C16.8195 2.13285 17.1782 2.28856 17.4426 2.56572C17.7071 2.84288 17.8557 3.2188 17.8557 3.61076V11.2141ZM18.6175 12.041C18.6464 11.7664 18.6616 11.4904 18.6629 11.2141V5.32627C19.4126 5.47425 20.089 5.89344 20.5739 6.51067C21.0588 7.12791 21.3214 7.904 21.316 8.70349C21.3107 9.50297 21.0375 10.2751 20.5443 10.8851C20.0511 11.4951 19.3692 11.9042 18.6175 12.041Z" fill="#E9A77D"/>
<path d="M6.76563 8.8378C6.7123 8.83656 6.66156 8.81348 6.62427 8.77351C6.58697 8.73354 6.5661 8.67986 6.56611 8.62396V4.87454C6.56175 4.84411 6.5637 4.81306 6.57183 4.78349C6.57997 4.75393 6.5941 4.72655 6.61326 4.70323C6.63241 4.67991 6.65615 4.6612 6.68283 4.64837C6.70952 4.63555 6.73854 4.62891 6.7679 4.62891C6.79726 4.62891 6.82628 4.63555 6.85297 4.64837C6.87966 4.6612 6.90339 4.67991 6.92255 4.70323C6.9417 4.72655 6.95583 4.75393 6.96397 4.78349C6.97211 4.81306 6.97406 4.84411 6.96969 4.87454V8.6097C6.97156 8.63896 6.96766 8.66831 6.95825 8.69592C6.94883 8.72353 6.93409 8.74882 6.91496 8.77021C6.89582 8.79161 6.87269 8.80865 6.847 8.82027C6.82131 8.8319 6.79362 8.83787 6.76563 8.8378Z" fill="white"/>
<path d="M10.7164 14.1865C10.3474 14.1865 9.98716 14.1733 9.63572 14.1469C9.29306 14.1206 8.96797 14.0767 8.66046 14.0151V12.974C9.0119 13.0619 9.35017 13.1234 9.67526 13.1585C10.0091 13.1849 10.3518 13.198 10.7032 13.198C11.0459 13.198 11.3622 13.1717 11.6521 13.119C11.9509 13.0662 12.2057 12.974 12.4165 12.8422C12.6274 12.7104 12.7943 12.5391 12.9173 12.3282C13.0403 12.1086 13.1018 11.8406 13.1018 11.5243C13.1018 10.8741 12.8822 10.4216 12.4429 10.1668C12.0036 9.91203 11.349 9.78463 10.4792 9.78463H9.75433V8.87527H10.466C11.2655 8.87527 11.8718 8.7303 12.2847 8.44035C12.6977 8.14163 12.9042 7.74186 12.9042 7.24105C12.9042 6.70509 12.7416 6.3229 12.4165 6.09446C12.1002 5.86602 11.6126 5.7518 10.9536 5.7518C10.6901 5.7518 10.3869 5.77376 10.0443 5.8177C9.70161 5.86163 9.38531 5.92752 9.09537 6.01538V5.04012C9.32381 4.96983 9.60936 4.90833 9.95202 4.85561C10.3035 4.8029 10.6549 4.77654 11.0064 4.77654C11.9904 4.77654 12.7328 4.96544 13.2336 5.34324C13.7432 5.72105 13.998 6.33168 13.998 7.17515C13.998 7.77261 13.8531 8.23388 13.5631 8.55897C13.2732 8.87527 12.8778 9.1081 12.377 9.25746V9.33654C13.0272 9.45076 13.4972 9.69677 13.7872 10.0746C14.0859 10.4436 14.2353 10.9312 14.2353 11.5375C14.2353 12.3809 13.9497 13.0355 13.3786 13.5012C12.8163 13.958 11.9289 14.1865 10.7164 14.1865Z" fill="white"/>
</svg>
