<svg width="24" height="25" viewBox="0 0 24 25" fill="none" xmlns="http://www.w3.org/2000/svg">
<path d="M16.4462 1.70996H6.76656C6.28559 1.70996 5.82432 1.91023 5.48422 2.26671C5.14412 2.62318 4.95305 3.10667 4.95305 3.61081V11.2142C4.95305 12.1301 5.12524 13.037 5.45977 13.8831C5.7943 14.7292 6.28462 15.4979 6.9027 16.1453C7.52079 16.7928 8.25454 17.3062 9.062 17.6562C9.86947 18.0063 10.7348 18.1862 11.6086 18.1855C13.3726 18.1855 15.0643 17.451 16.3117 16.1437C17.559 14.8363 18.2597 13.0631 18.2597 11.2142V3.61081C18.2597 3.10667 18.0686 2.62318 17.7285 2.26671C17.3884 1.91023 16.9272 1.70996 16.4462 1.70996ZM1.49377 8.67655C1.49557 9.60057 1.81443 10.4931 2.39211 11.1911C2.96979 11.889 3.76774 12.3459 4.64022 12.4782V4.87487C3.76696 5.00531 2.96792 5.46165 2.3899 6.16004C1.81188 6.85844 1.49368 7.75199 1.49377 8.67655ZM18.5816 4.87487V12.4782C19.4501 12.3413 20.2428 11.8823 20.8158 11.1847C21.3887 10.487 21.7039 9.59708 21.7039 8.67655C21.7039 7.75603 21.3887 6.86607 20.8158 6.16843C20.2428 5.47079 19.4501 5.01179 18.5816 4.87487Z" fill="#A3AECF"/>
<path d="M18.6593 4.46237V3.61174C18.6593 2.99499 18.4259 2.40344 18.0102 1.96689C17.5946 1.53034 17.0307 1.28446 16.4423 1.2832H6.76266C6.47113 1.2832 6.18247 1.34347 5.91319 1.46054C5.64392 1.57762 5.39931 1.74922 5.19338 1.9655C4.98745 2.18179 4.82425 2.43852 4.7131 2.72101C4.60195 3.00349 4.54504 3.30617 4.54564 3.61174V4.46712C3.59213 4.63654 2.72704 5.15544 2.10461 5.93127C1.48219 6.70711 1.1429 7.68945 1.14726 8.70312C1.15161 9.71679 1.49933 10.6959 2.1284 11.4658C2.75746 12.2357 3.62699 12.7465 4.58191 12.9069H4.63631C4.6694 12.9118 4.70298 12.9118 4.73606 12.9069C5.08178 14.4608 5.89777 15.8558 7.06219 16.8836C8.22661 17.9113 9.67697 18.5168 11.1967 18.6094V22.0119C11.199 22.0864 11.221 22.1588 11.2602 22.221H6.76266C6.65564 22.221 6.55301 22.2656 6.47734 22.3449C6.40166 22.4242 6.35915 22.5318 6.35915 22.6439C6.35915 22.7561 6.40166 22.8637 6.47734 22.943C6.55301 23.0223 6.65564 23.0669 6.76266 23.0669H16.4423C16.5493 23.0669 16.6519 23.0223 16.7276 22.943C16.8033 22.8637 16.8458 22.7561 16.8458 22.6439C16.8458 22.5318 16.8033 22.4242 16.7276 22.3449C16.6519 22.2656 16.5493 22.221 16.4423 22.221H11.9448C11.9826 22.1584 12.003 22.086 12.0037 22.0119V18.5904C13.5242 18.4987 14.9756 17.8938 16.1409 16.8659C17.3063 15.8381 18.1229 14.4425 18.4689 12.8879C18.5035 12.8924 18.5385 12.8924 18.5732 12.8879H18.6276C19.5824 12.7269 20.4516 12.2156 21.0803 11.4453C21.7089 10.6751 22.0561 9.69576 22.0599 8.6821C22.0637 7.66844 21.7239 6.68631 21.1011 5.91084C20.4783 5.13537 19.6129 4.61698 18.6593 4.44811V4.46237ZM1.88431 8.67749C1.89189 7.88727 2.1602 7.12417 2.64368 6.51779C3.12716 5.91141 3.79599 5.49914 4.53657 5.35101V11.2151C4.53786 11.4898 4.55299 11.7642 4.58191 12.0372C3.82973 11.895 3.14888 11.481 2.6577 10.8672C2.16652 10.2534 1.89608 9.47861 1.89338 8.67749H1.88431ZM17.8523 11.2151C17.8084 12.9219 17.1307 14.5434 15.9634 15.7344C14.7962 16.9254 13.2315 17.5918 11.6025 17.5918C9.97347 17.5918 8.40879 16.9254 7.2415 15.7344C6.07422 14.5434 5.39652 12.9219 5.35265 11.2151V3.61174C5.35265 3.21977 5.50121 2.84386 5.76563 2.5667C6.03006 2.28954 6.3887 2.13383 6.76266 2.13383H16.4423C16.8162 2.13383 17.1749 2.28954 17.4393 2.5667C17.7037 2.84386 17.8523 3.21977 17.8523 3.61174V11.2151ZM18.614 12.042C18.6429 11.7674 18.658 11.4914 18.6593 11.2151V5.32725C19.4089 5.47523 20.0851 5.89441 20.5699 6.51165C21.0548 7.12889 21.3174 7.90497 21.312 8.70446C21.3066 9.50395 21.0335 10.2761 20.5404 10.886C20.0473 11.496 19.3655 11.9051 18.614 12.042Z" fill="#D6DEFF"/>
<path d="M6.76462 8.8378C6.7113 8.83656 6.66056 8.81348 6.62328 8.77351C6.58599 8.73354 6.56512 8.67986 6.56513 8.62396V4.87454C6.56077 4.84411 6.56272 4.81306 6.57086 4.78349C6.57899 4.75393 6.59312 4.72655 6.61227 4.70323C6.63142 4.67991 6.65515 4.6612 6.68184 4.64837C6.70852 4.63555 6.73753 4.62891 6.76689 4.62891C6.79624 4.62891 6.82525 4.63555 6.85194 4.64837C6.87862 4.6612 6.90235 4.67991 6.9215 4.70323C6.94065 4.72655 6.95478 4.75393 6.96292 4.78349C6.97105 4.81306 6.973 4.84411 6.96864 4.87454V8.6097C6.9705 8.63896 6.96661 8.66831 6.95719 8.69592C6.94778 8.72353 6.93305 8.74882 6.91391 8.77021C6.89478 8.79161 6.87165 8.80865 6.84597 8.82027C6.82029 8.8319 6.7926 8.83787 6.76462 8.8378Z" fill="white"/>
<path d="M8.48791 12.8036C9.46317 12.0392 10.2451 11.3891 10.8338 10.8531C11.4225 10.3172 11.8794 9.84711 12.2044 9.44295C12.5295 9.03879 12.7448 8.67856 12.8502 8.36226C12.9557 8.03717 13.0084 7.71208 13.0084 7.38699C13.0084 7.06191 12.9469 6.79393 12.8239 6.58306C12.7096 6.3722 12.5603 6.20526 12.3758 6.08226C12.1913 5.95925 11.9804 5.87578 11.7432 5.83185C11.5147 5.78792 11.2907 5.76596 11.071 5.76596C10.7811 5.76596 10.4736 5.78353 10.1485 5.81867C9.8234 5.84503 9.48074 5.90653 9.12051 6.00318V4.98838C9.42802 4.91809 9.75311 4.86538 10.0958 4.83023C10.4472 4.79509 10.8162 4.77752 11.2028 4.77752C11.6509 4.77752 12.0551 4.82584 12.4153 4.92249C12.7755 5.01913 13.0831 5.17289 13.3378 5.38376C13.6014 5.59463 13.7991 5.867 13.9309 6.20087C14.0715 6.53474 14.1418 6.93451 14.1418 7.40017C14.1418 7.81312 14.0803 8.2041 13.9573 8.57312C13.8343 8.93335 13.6278 9.31116 13.3378 9.70653C13.0479 10.0931 12.6569 10.5149 12.1649 10.9717C11.6729 11.4198 11.0578 11.9382 10.3198 12.5269L9.79265 12.9354V13.054H14.5108V14.0557H8.48791V12.8036Z" fill="white"/>
</svg>
