<svg width="15" height="7" viewBox="0 0 15 7" fill="none" xmlns="http://www.w3.org/2000/svg">
<path d="M0 0.0981044C6.30985 0.0981044 2.81415 6.96542 9.40723 6.96542H10.2528C11.255 6.96542 12.2576 6.46093 12.7657 5.96215C13.1594 5.57577 14.2694 4.5797 14.2694 4.02231V3.5318C14.2694 2.65747 13.4594 1.76587 12.4725 1.76587V1.47157C12.4725 0.88232 11.1997 0.294329 10.4642 0.294329H9.51293C8.75043 0.294329 8.20258 0.997242 7.71544 1.27478C7.07743 1.63832 6.44766 1.87104 6.44766 2.84507V3.04127C6.44766 3.82888 7.6283 5.00334 8.45596 5.00334H9.61864C10.3391 5.00334 11.0984 4.40382 11.0984 3.62989V3.43369C11.0984 2.8829 10.3996 2.35456 9.83003 2.35456H9.40723C9.12172 2.35456 9.11579 2.40131 8.87873 2.45265C9.07764 2.20058 9.46442 2.15833 9.93572 2.15833H10.0414C10.8416 2.15833 11.6269 2.89336 11.6269 3.72799V3.9242C11.6269 4.77745 10.2264 5.49386 9.19583 5.49386H8.87873C4.45566 5.49386 6.88113 0 0 0V0.0981044Z" fill="#909EF0"/>
</svg>
