<svg width="100" height="100" viewBox="0 0 100 100" fill="none" xmlns="http://www.w3.org/2000/svg">
<path d="M100 57.2063C100 84.3932 77.6179 100 49.9859 100C22.3822 100 6.10352e-05 84.3932 6.10352e-05 57.2063C6.10352e-05 30.0472 22.3822 0 49.9859 0C77.6179 0 100 30.0472 100 57.2063Z" fill="url(#paint0_linear_7136_1433)"/>
<path d="M91.9416 53.922C91.9416 76.1103 73.6237 88.8568 51.0722 88.8568C28.4925 88.8568 10.2029 76.1103 10.2029 53.922C10.2029 31.706 28.4925 7.15723 51.0722 7.15723C73.6237 7.15723 91.9416 31.706 91.9416 53.922Z" fill="#7E0A28"/>
<path d="M20.2509 76.7485C23.1581 79.4421 26.6015 81.636 30.44 83.33C27.2224 77.9148 25.4725 69.5282 24.8516 60.8084C19.8558 60.6418 14.9447 59.8643 10.7674 59.2533C12.0093 66.3624 15.3963 72.2497 20.2509 76.7485ZM10.2029 52.8662C10.2029 55.0878 10.3911 57.2168 10.7674 59.2533C14.9447 59.8643 19.8558 60.6418 24.8516 60.8084C24.6822 58.3647 24.5975 55.9209 24.5975 53.5049C24.5975 45.285 25.783 35.4544 27.9845 26.6513C24.0048 28.012 19.009 29.345 15.7068 31.2611C12.2069 38.0648 10.2029 45.5904 10.2029 52.8662ZM15.7068 31.2611C19.009 29.345 24.0048 28.012 27.9845 26.6513C29.3675 21.0695 31.1456 15.932 33.2907 11.8498C29.9037 13.877 26.7708 16.4596 23.9766 19.431C20.7025 22.9023 17.9083 26.929 15.7068 31.2611ZM30.44 83.33C36.3107 85.8848 43.1129 87.2455 50.3666 87.2455C57.9873 87.2455 65.0717 85.7737 71.14 82.9689C73.9625 77.526 74.6681 69.1117 75.2608 60.9195C69.6535 61.3823 64.0274 61.6878 58.3824 61.8359C47.1772 62.1414 36.0285 61.4472 24.8516 60.8084C25.4725 69.5282 27.2224 77.9148 30.44 83.33ZM24.5975 53.5049C24.5975 55.9209 24.6822 58.3647 24.8516 60.8084C36.0285 61.4472 47.1772 62.1414 58.3824 61.8359C64.0274 61.6878 69.6535 61.3823 75.2608 60.9195C76.4745 49.6726 75.5995 37.6204 72.6641 26.679C58.4107 23.0967 42.0686 21.847 27.9845 26.6513C25.783 35.4544 24.5975 45.285 24.5975 53.5049ZM27.9845 26.6513C42.0686 21.847 58.4107 23.0967 72.6641 26.679C71.394 21.6249 70.265 16.4874 68.3458 12.3774C62.9266 8.96173 56.8301 6.90674 50.3666 6.90674C44.2701 6.90674 38.484 8.73957 33.2907 11.8498C31.1456 15.932 29.3675 21.0695 27.9845 26.6513ZM71.14 82.9689C74.6399 81.3305 77.801 79.2477 80.5106 76.7485C85.3652 72.2497 88.7522 66.3624 89.9941 59.2533C85.1018 59.9383 80.1907 60.4937 75.2608 60.9195C74.6681 69.1117 73.9625 77.526 71.14 82.9689ZM75.2608 60.9195C80.1907 60.4937 85.1018 59.9383 89.9941 59.2533C90.3704 57.2168 90.5586 55.0878 90.5586 52.8662C90.5586 45.5904 88.5546 38.0648 85.0547 31.2611C81.2162 29.2339 77.0107 27.7621 72.6641 26.679C75.5995 37.6204 76.4745 49.6726 75.2608 60.9195ZM72.6641 26.679C77.0107 27.7621 81.2162 29.2339 85.0547 31.2611C82.8532 26.929 80.059 22.9023 76.7849 19.431C74.2165 16.7096 71.394 14.3213 68.3458 12.3774C70.265 16.4874 71.394 21.6249 72.6641 26.679Z" fill="#D71D4D"/>
<path d="M61.6268 29.1069L51.5612 39.0392L41.4662 29.1069C39.1117 26.8192 35.3445 26.8192 33.0194 29.1069C30.6944 31.3945 30.6944 35.13 33.0194 37.4176L43.1144 47.35L33.0194 57.2824C30.6944 59.57 30.6944 63.2766 33.0194 65.5642C35.3445 67.8518 39.1117 67.8518 41.4662 65.5642L51.5612 55.6318L61.6268 65.5642C63.9813 67.8518 67.7485 67.8518 70.0736 65.5642C72.3986 63.2766 72.3986 59.57 70.0736 57.2824L59.9786 47.35L70.0736 37.4176C75.5184 31.8578 67.2776 23.7498 61.6268 29.1069Z" fill="white"/>
<defs>
<linearGradient id="paint0_linear_7136_1433" x1="-8855.32" y1="88237.6" x2="-5715.34" y2="111783" gradientUnits="userSpaceOnUse">
<stop stop-color="white"/>
<stop offset="1" stop-color="#D1D3D4"/>
</linearGradient>
</defs>
</svg>
