<svg width="215" height="77" viewBox="0 0 215 77" fill="none" xmlns="http://www.w3.org/2000/svg">
<path d="M0 11.4597V70.7435C0 73.8328 2.64073 76.3356 5.95211 76.3356H208.156C211.467 76.3356 214.15 73.8328 214.15 70.7435V5.59385C214.15 2.46542 211.342 -0.0764531 207.988 0.0017578L5.78443 5.86757C2.55688 5.98489 0 8.44855 0 11.4597Z" fill="url(#paint0_linear_7209_337)"/>
<path d="M10.7544 64.3071C10.7544 65.4625 11.2986 66.4983 12.1778 67.2552C13.1825 68.1317 14.6059 68.6895 16.1968 68.6895C24.2906 68.6895 32.3983 68.6895 40.52 68.6895C38.1756 66.2593 39.306 60.2834 39.2641 57.2157C31.1424 57.4548 23.0626 57.4149 14.9408 57.4548C13.35 57.4548 11.8847 57.2157 10.7544 56.5783C10.7544 59.1546 10.7544 61.7309 10.7544 64.3071ZM10.7544 56.5783C11.8847 57.2157 13.35 57.4548 14.9408 57.4548C23.0626 57.4149 31.1424 57.4548 39.2641 57.2157C39.0967 50.0845 38.9292 42.8736 38.8036 35.7025C29.4678 36.0212 20.0483 35.9017 10.7544 36.3001C10.7544 43.0462 10.7544 49.8056 10.7544 56.5783ZM10.7544 17.6553C10.7544 23.8702 10.7544 30.0852 10.7544 36.3001C20.0483 35.9017 29.4678 36.0212 38.8036 35.7025C38.692 30.6296 38.5803 25.5435 38.4687 20.4441C38.3849 17.0577 37.757 13.6315 41.9434 12.6356C33.2914 12.848 24.6534 13.0605 16.0293 13.273C15.0664 13.3128 14.2291 13.512 13.4756 13.8706C11.8429 14.6275 10.7544 16.0617 10.7544 17.6553ZM40.52 68.6895C86.5152 68.6895 132.496 68.6895 178.464 68.6895C180.766 66.1397 179.468 59.9647 179.426 56.7775C132.747 56.9369 85.943 57.1361 39.2641 57.2157C39.306 60.2834 38.1756 66.2593 40.52 68.6895ZM39.2641 57.2157C85.943 57.1361 132.747 56.9369 179.426 56.7775C179.343 49.3674 179.259 41.9971 179.008 34.587C132.287 34.9854 85.5662 35.3041 38.8036 35.7025C38.9292 42.8736 39.0967 50.0845 39.2641 57.2157ZM38.4687 20.4441C38.5803 25.5435 38.692 30.6296 38.8036 35.7025C85.5662 35.3041 132.287 34.9854 179.008 34.587C179.008 30.1648 178.966 25.7825 178.924 21.3604C178.924 17.6155 179.845 12.8347 178.715 9.20936C133.11 10.3514 87.5199 11.4935 41.9434 12.6356C37.757 13.6315 38.3849 17.0577 38.4687 20.4441ZM178.464 68.6895C185.413 68.6895 192.376 68.6895 199.354 68.6895C200.945 68.6895 202.368 68.1317 203.331 67.2552C204.21 66.4983 204.754 65.4625 204.754 64.3071C204.754 61.5449 204.754 58.7695 204.754 55.9807C201.531 57.3751 197.135 56.7377 193.744 56.7377C188.972 56.7377 184.199 56.751 179.426 56.7775C179.468 59.9647 180.766 66.1397 178.464 68.6895ZM179.426 56.7775C184.199 56.751 188.972 56.7377 193.744 56.7377C197.135 56.7377 201.531 57.3751 204.754 55.9807C204.754 48.8628 204.754 41.7448 204.754 34.6268C203.708 34.3878 202.201 34.3878 200.526 34.3878C193.353 34.4409 186.181 34.5073 179.008 34.587C179.259 41.9971 179.343 49.3674 179.426 56.7775ZM178.924 21.3604C178.966 25.7825 179.008 30.1648 179.008 34.587C186.181 34.5073 193.353 34.4409 200.526 34.3878C202.201 34.3878 203.708 34.3878 204.754 34.6268C204.754 27.4292 204.754 20.2449 204.754 13.0738C204.754 11.9184 204.21 10.8826 203.331 10.1257C202.326 9.20936 200.819 8.65161 199.186 8.69145C192.349 8.85081 185.525 9.02344 178.715 9.20936C179.845 12.8347 178.924 17.6155 178.924 21.3604Z" fill="#BFC8FA"/>
<defs>
<linearGradient id="paint0_linear_7209_337" x1="107.075" y1="0" x2="107.075" y2="76.3356" gradientUnits="userSpaceOnUse">
<stop stop-color="#909EF0"/>
<stop offset="1" stop-color="#8F92E6"/>
</linearGradient>
</defs>
</svg>
