<svg width="100" height="100" viewBox="0 0 100 100" fill="none" xmlns="http://www.w3.org/2000/svg">
<path d="M100 57.2063C100 84.3932 77.6178 100 49.9859 100C22.3821 100 0 84.3932 0 57.2063C0 30.0472 22.3821 0 49.9859 0C77.6178 0 100 30.0472 100 57.2063Z" fill="url(#paint0_linear_7136_1445)"/>
<path d="M91.9417 53.922C91.9417 76.1103 73.6239 88.8568 51.0724 88.8568C28.4927 88.8568 10.2031 76.1103 10.2031 53.922C10.2031 31.706 28.4927 7.15723 51.0724 7.15723C73.6239 7.15723 91.9417 31.706 91.9417 53.922Z" fill="#4E5CDE"/>
<path d="M20.2511 76.7485C23.1582 79.4421 26.6016 81.636 30.4402 83.33C27.2226 77.9148 25.4727 69.5282 24.8517 60.8084C19.856 60.6418 14.9449 59.8643 10.7676 59.2533C12.0095 66.3624 15.3965 72.2497 20.2511 76.7485ZM10.2031 52.8662C10.2031 55.0878 10.3913 57.2168 10.7676 59.2533C14.9449 59.8643 19.856 60.6418 24.8517 60.8084C24.6824 58.3647 24.5977 55.9209 24.5977 53.5049C24.5977 45.285 25.7831 35.4544 27.9847 26.6513C24.005 28.012 19.0092 29.345 15.7069 31.2611C12.2071 38.0648 10.2031 45.5904 10.2031 52.8662ZM15.7069 31.2611C19.0092 29.345 24.005 28.012 27.9847 26.6513C29.3677 21.0695 31.1458 15.932 33.2909 11.8498C29.9039 13.877 26.771 16.4596 23.9767 19.431C20.7027 22.9023 17.9085 26.929 15.7069 31.2611ZM30.4402 83.33C36.3109 85.8848 43.1131 87.2455 50.3668 87.2455C57.9875 87.2455 65.0719 85.7737 71.1402 82.9689C73.9627 77.526 74.6683 69.1117 75.261 60.9195C69.6537 61.3823 64.0275 61.6878 58.3826 61.8359C47.1774 62.1414 36.0287 61.4472 24.8517 60.8084C25.4727 69.5282 27.2226 77.9148 30.4402 83.33ZM24.5977 53.5049C24.5977 55.9209 24.6824 58.3647 24.8517 60.8084C36.0287 61.4472 47.1774 62.1414 58.3826 61.8359C64.0275 61.6878 69.6537 61.3823 75.261 60.9195C76.4746 49.6726 75.5997 37.6204 72.6643 26.679C58.4108 23.0967 42.0688 21.847 27.9847 26.6513C25.7831 35.4544 24.5977 45.285 24.5977 53.5049ZM27.9847 26.6513C42.0688 21.847 58.4108 23.0967 72.6643 26.679C71.3942 21.6249 70.2652 16.4874 68.3459 12.3774C62.9268 8.96173 56.8302 6.90674 50.3668 6.90674C44.2703 6.90674 38.4842 8.73957 33.2909 11.8498C31.1458 15.932 29.3677 21.0695 27.9847 26.6513ZM71.1402 82.9689C74.64 81.3305 77.8012 79.2477 80.5108 76.7485C85.3654 72.2497 88.7524 66.3624 89.9942 59.2533C85.102 59.9383 80.1909 60.4937 75.261 60.9195C74.6683 69.1117 73.9627 77.526 71.1402 82.9689ZM75.261 60.9195C80.1909 60.4937 85.102 59.9383 89.9942 59.2533C90.3706 57.2168 90.5587 55.0878 90.5587 52.8662C90.5587 45.5904 88.5548 38.0648 85.0549 31.2611C81.2164 29.2339 77.0109 27.7621 72.6643 26.679C75.5997 37.6204 76.4746 49.6726 75.261 60.9195ZM72.6643 26.679C77.0109 27.7621 81.2164 29.2339 85.0549 31.2611C82.8534 26.929 80.0592 22.9023 76.7851 19.431C74.2167 16.7096 71.3942 14.3213 68.3459 12.3774C70.2652 16.4874 71.3942 21.6249 72.6643 26.679Z" fill="#909EF0"/>
<path d="M38.0012 38.0481L38.3767 60.3884C38.436 64.7508 42.4275 67.529 45.7669 65.5314L66.4951 53.2937C70.368 50.9976 70.1506 44.454 66.1196 42.5483L45.0358 32.4458C41.6371 30.8386 37.9222 33.7775 38.0012 38.0481Z" fill="white"/>
<defs>
<linearGradient id="paint0_linear_7136_1445" x1="-8855.32" y1="88237.6" x2="-5715.34" y2="111783" gradientUnits="userSpaceOnUse">
<stop stop-color="white"/>
<stop offset="1" stop-color="#D1D3D4"/>
</linearGradient>
</defs>
</svg>
