<svg width="215" height="77" viewBox="0 0 215 77" fill="none" xmlns="http://www.w3.org/2000/svg">
<path d="M214.15 11.4597V70.7435C214.15 73.8328 211.509 76.3356 208.198 76.3356H5.99403C2.68265 76.3356 -6.69294e-06 73.8328 -6.69294e-06 70.7435V5.59385C-6.69294e-06 2.46542 2.80838 -0.0764531 6.16168 0.0017578L208.366 5.86757C211.593 5.98489 214.15 8.44855 214.15 11.4597Z" fill="url(#paint0_linear_7208_331)"/>
<path d="M203.396 64.3071C203.396 65.4625 202.851 66.4983 201.972 67.2552C200.967 68.1317 199.544 68.6895 197.953 68.6895C189.859 68.6895 181.752 68.6895 173.63 68.6895C175.974 66.2593 174.844 60.2834 174.886 57.2157C183.008 57.4548 191.087 57.4149 199.209 57.4548C200.8 57.4548 202.265 57.2157 203.396 56.5783C203.396 59.1546 203.396 61.7309 203.396 64.3071ZM203.396 56.5783C202.265 57.2157 200.8 57.4548 199.209 57.4548C191.087 57.4149 183.008 57.4548 174.886 57.2157C175.053 50.0845 175.221 42.8736 175.346 35.7025C184.682 36.0212 194.102 35.9017 203.396 36.3001C203.396 43.0462 203.396 49.8056 203.396 56.5783ZM203.396 17.6553C203.396 23.8702 203.396 30.0852 203.396 36.3001C194.102 35.9017 184.682 36.0212 175.346 35.7025C175.458 30.6296 175.57 25.5435 175.681 20.4441C175.765 17.0577 176.393 13.6315 172.207 12.6356C180.859 12.848 189.497 13.0605 198.121 13.273C199.084 13.3128 199.921 13.512 200.674 13.8706C202.307 14.6275 203.396 16.0617 203.396 17.6553ZM173.63 68.6895C127.635 68.6895 81.6536 68.6895 35.6864 68.6895C33.3839 66.1397 34.6817 59.9647 34.7236 56.7775C81.4025 56.9369 128.207 57.1361 174.886 57.2157C174.844 60.2834 175.974 66.2593 173.63 68.6895ZM174.886 57.2157C128.207 57.1361 81.4025 56.9369 34.7236 56.7775C34.8073 49.3674 34.891 41.9971 35.1422 34.587C81.863 34.9854 128.584 35.3041 175.346 35.7025C175.221 42.8736 175.053 50.0845 174.886 57.2157ZM175.681 20.4441C175.57 25.5435 175.458 30.6296 175.346 35.7025C128.584 35.3041 81.863 34.9854 35.1422 34.587C35.1422 30.1648 35.1841 25.7825 35.2259 21.3604C35.2259 17.6155 34.3049 12.8347 35.4353 9.20936C81.0396 10.3514 126.63 11.4935 172.207 12.6356C176.393 13.6315 175.765 17.0577 175.681 20.4441ZM35.6864 68.6895C28.7369 68.6895 21.7735 68.6895 14.7961 68.6895C13.2052 68.6895 11.7818 68.1317 10.8189 67.2552C9.93979 66.4983 9.39555 65.4625 9.39555 64.3071C9.39555 61.5449 9.39555 58.7695 9.39555 55.9807C12.6191 57.3751 17.0149 56.7377 20.4059 56.7377C25.1784 56.7377 29.951 56.751 34.7236 56.7775C34.6817 59.9647 33.3839 66.1397 35.6864 68.6895ZM34.7236 56.7775C29.951 56.751 25.1784 56.7377 20.4059 56.7377C17.0149 56.7377 12.6191 57.3751 9.39555 55.9807C9.39555 48.8628 9.39555 41.7448 9.39555 34.6268C10.4422 34.3878 11.9493 34.3878 13.6238 34.3878C20.7966 34.4409 27.9694 34.5073 35.1422 34.587C34.891 41.9971 34.8073 49.3674 34.7236 56.7775ZM35.2259 21.3604C35.1841 25.7825 35.1422 30.1648 35.1422 34.587C27.9694 34.5073 20.7966 34.4409 13.6238 34.3878C11.9493 34.3878 10.4422 34.3878 9.39555 34.6268C9.39555 27.4292 9.39555 20.2449 9.39555 13.0738C9.39555 11.9184 9.93979 10.8826 10.8189 10.1257C11.8237 9.20936 13.3308 8.65161 14.9635 8.69145C21.8014 8.85081 28.6253 9.02344 35.4353 9.20936C34.3049 12.8347 35.2259 17.6155 35.2259 21.3604Z" fill="#BFC8FA"/>
<defs>
<linearGradient id="paint0_linear_7208_331" x1="107.075" y1="0" x2="107.075" y2="76.3356" gradientUnits="userSpaceOnUse">
<stop stop-color="#909EF0"/>
<stop offset="1" stop-color="#8F92E6"/>
</linearGradient>
</defs>
</svg>
