<svg width="328" height="437" viewBox="0 0 328 437" fill="none" xmlns="http://www.w3.org/2000/svg">
<path d="M10.8609 17.9765L315.668 0.0209527C322.733 -0.380288 328.548 5.03647 327.959 11.5232L291.896 426.372C291.381 432.023 286.192 436.337 280.046 436.203L23.6302 430.485C17.4847 430.318 12.5168 425.771 12.3328 420.12L0.00513341 28.9437C-0.178862 23.1926 4.60502 18.3443 10.8609 17.9765Z" fill="url(#paint0_linear_7202_331)"/>
<path d="M19.8999 26.6925L306.389 9.34214C313.029 8.93865 318.495 14.1841 317.982 20.4719L284.046 421.548C283.606 427.029 278.69 431.165 272.893 431.064L31.9333 425.516C26.1 425.382 21.4408 420.977 21.2574 415.496L9.70096 37.2843C9.51752 31.7362 14.03 27.0624 19.8999 26.6925Z" fill="#B3B8BA"/>
<path d="M24.9448 411.11C24.9816 413.357 25.8276 415.402 27.1886 417.045C29.0645 419.393 32.0439 420.902 35.3543 420.969C50.7786 421.327 66.2028 421.685 81.627 422.042C81.3327 421.606 81.1856 421.103 80.9649 420.6C80.3028 419.158 80.0453 417.548 80.0086 415.838C78.7947 308.627 80.2293 200.006 79.1626 92.8282C61.5804 93.4989 43.9247 94.2031 26.1586 95.008C23.3632 95.1421 20.7884 94.9409 18.0664 94.9744C17.0733 94.9744 16.1905 94.8738 15.2709 95.1086C18.4833 200.453 21.7079 305.787 24.9448 411.11ZM13.5789 39.1385C14.1429 57.8064 14.7069 76.4631 15.2709 95.1086C16.1905 94.8738 17.0733 94.9744 18.0664 94.9744C20.7884 94.9409 23.3632 95.1421 26.1586 95.008C43.9247 94.2031 61.5804 93.4989 79.1626 92.8282C78.9787 80.6214 78.9051 68.4146 78.7947 56.2079C78.7457 50.2163 78.6721 44.2135 78.574 38.1995C78.5373 34.0412 79.0154 27.6024 83.4294 25.0873C63.4931 26.3169 43.5446 27.5354 23.5838 28.7426C22.5539 28.8097 21.5976 28.9774 20.678 29.3127C16.4112 30.7547 13.4318 34.6448 13.5789 39.1385ZM80.0086 415.838C80.0453 417.548 80.3028 419.158 80.9649 420.6C81.1856 421.103 81.3327 421.606 81.627 422.042C138.64 423.361 195.666 424.669 252.703 425.966C252.814 425.396 252.814 424.859 252.814 424.256C252.887 422.579 252.851 420.936 252.961 419.225C260.244 307.822 265.982 197.223 272.787 86.0541C207.35 88.5022 143.827 90.3466 79.1626 92.8282C80.2293 200.006 78.7947 308.627 80.0086 415.838ZM78.574 38.1995C78.6721 44.2135 78.7457 50.2163 78.7947 56.2079C78.9051 68.4146 78.9787 80.6214 79.1626 92.8282C143.827 90.3466 207.35 88.5022 272.787 86.0541C273.988 66.1566 275.239 46.2368 276.539 26.2946C276.649 24.6514 276.833 23.0417 276.98 21.3985C277.311 18.2126 276.796 15.4627 274.994 13.4506C211.139 17.3407 147.284 21.2196 83.4294 25.0873C79.0154 27.6024 78.5373 34.0412 78.574 38.1995ZM252.961 419.225C252.851 420.936 252.887 422.579 252.814 424.256C252.814 424.859 252.814 425.396 252.703 425.966C259.079 426.122 265.455 426.268 271.831 426.402C276.87 426.536 281.247 423.283 282.461 418.789C282.608 418.23 282.706 417.66 282.755 417.079C292.073 306.48 301.404 195.882 310.747 85.2828C308.687 83.7402 306.112 83.6731 302.912 84.0085C300.116 84.3103 297.431 84.6792 294.599 84.8468C287.279 85.2828 280.107 85.6182 272.787 86.0541C265.982 197.223 260.244 307.822 252.961 419.225ZM276.98 21.3985C276.833 23.0417 276.649 24.6514 276.539 26.2946C275.239 46.2368 273.988 66.1566 272.787 86.0541C280.107 85.6182 287.279 85.2828 294.599 84.8468C297.431 84.6792 300.116 84.3103 302.912 84.0085C306.112 83.6731 308.687 83.7402 310.747 85.2828C312.512 64.3792 314.278 43.4869 316.043 22.6057C316.301 19.4534 315.013 16.5694 312.843 14.5238C310.783 12.6123 307.878 11.4721 304.677 11.6733C294.771 12.2545 284.876 12.847 274.994 13.4506C276.796 15.4627 277.311 18.2126 276.98 21.3985Z" fill="#FFF9F3"/>
<defs>
<linearGradient id="paint0_linear_7202_331" x1="164" y1="0" x2="164" y2="436.206" gradientUnits="userSpaceOnUse">
<stop stop-color="#909EF0"/>
<stop offset="1" stop-color="#535B8A"/>
</linearGradient>
</defs>
</svg>
