<svg width="125" height="125" viewBox="0 0 125 125" fill="none" xmlns="http://www.w3.org/2000/svg">
<path d="M125 71.5079C125 105.492 97.0223 125 62.4823 125C27.9777 125 0 105.492 0 71.5079C0 37.559 27.9777 0 62.4823 0C97.0223 0 125 37.559 125 71.5079Z" fill="url(#paint0_linear_7211_360)"/>
<path d="M114.927 67.4032C114.927 95.1386 92.0299 111.072 63.8405 111.072C35.6159 111.072 12.7539 95.1386 12.7539 67.4032C12.7539 39.6332 35.6159 8.94727 63.8405 8.94727C92.0299 8.94727 114.927 39.6332 114.927 67.4032Z" fill="#4E5CDE"/>
<path d="M25.3139 95.9354C28.9478 99.3026 33.2521 102.045 38.0502 104.162C34.0282 97.3934 31.8408 86.9102 31.0647 76.0104C24.82 75.8022 18.6811 74.8302 13.4595 74.0665C15.0119 82.9529 19.2456 90.312 25.3139 95.9354ZM12.7539 66.0826C12.7539 68.8596 12.9891 71.5209 13.4595 74.0665C18.6811 74.8302 24.82 75.8022 31.0647 76.0104C30.853 72.9557 30.7471 69.901 30.7471 66.881C30.7471 56.6061 32.2289 44.3178 34.9808 33.3139C30.0062 35.0149 23.7615 36.6811 19.6337 39.0762C15.2588 47.5808 12.7539 56.9879 12.7539 66.0826ZM19.6337 39.0762C23.7615 36.6811 30.0062 35.0149 34.9808 33.3139C36.7096 26.3367 38.9323 19.9149 41.6136 14.8121C37.3799 17.3462 33.4637 20.5744 29.9709 24.2887C25.8783 28.6277 22.3856 33.6611 19.6337 39.0762ZM38.0502 104.162C45.3887 107.356 53.8913 109.057 62.9585 109.057C72.4843 109.057 81.3398 107.217 88.9252 103.711C92.4533 96.9074 93.3353 86.3895 94.0762 76.1493C87.0671 76.7278 80.0344 77.1096 72.9783 77.2948C58.9718 77.6766 45.0359 76.8088 31.0647 76.0104C31.8408 86.9102 34.0282 97.3934 38.0502 104.162ZM30.7471 66.881C30.7471 69.901 30.853 72.9557 31.0647 76.0104C45.0359 76.8088 58.9718 77.6766 72.9783 77.2948C80.0344 77.1096 87.0671 76.7278 94.0762 76.1493C95.5933 62.0907 94.4996 47.0254 90.8304 33.3487C73.0135 28.8707 52.586 27.3087 34.9808 33.3139C32.2289 44.3178 30.7471 56.6061 30.7471 66.881ZM34.9808 33.3139C52.586 27.3087 73.0135 28.8707 90.8304 33.3487C89.2427 27.031 87.8315 20.6091 85.4324 15.4717C78.6585 11.202 71.0378 8.6333 62.9585 8.6333C55.3378 8.6333 48.1053 10.9243 41.6136 14.8121C38.9323 19.9149 36.7096 26.3367 34.9808 33.3139ZM88.9252 103.711C93.3 101.663 97.2515 99.0596 100.638 95.9354C106.707 90.312 110.94 82.9529 112.493 74.0665C106.377 74.9228 100.239 75.617 94.0762 76.1493C93.3353 86.3895 92.4533 96.9074 88.9252 103.711ZM94.0762 76.1493C100.239 75.617 106.377 74.9228 112.493 74.0665C112.963 71.5209 113.198 68.8596 113.198 66.0826C113.198 56.9879 110.693 47.5808 106.319 39.0762C101.52 36.5422 96.2636 34.7025 90.8304 33.3487C94.4996 47.0254 95.5933 62.0907 94.0762 76.1493ZM90.8304 33.3487C96.2636 34.7025 101.52 36.5422 106.319 39.0762C103.567 33.6611 100.074 28.6277 95.9814 24.2887C92.7708 20.8868 89.2427 17.9016 85.4324 15.4717C87.8315 20.6091 89.2427 27.031 90.8304 33.3487Z" fill="#909EF0"/>
<path d="M40.8999 59.2246H49.6249C50.7082 59.2246 51.2499 59.7663 51.2499 60.8496V82.4496C51.2499 83.5329 50.7082 84.0746 49.6249 84.0746H40.8999C39.8166 84.0746 39.2749 83.5329 39.2749 82.4496V60.8496C39.2749 59.7663 39.8166 59.2246 40.8999 59.2246Z" fill="white"/>
<path d="M57.5 35.9253H66.9375C68.0208 35.9253 68.5625 36.467 68.5625 37.5503V82.4503C68.5625 83.5336 68.0208 84.0753 66.9375 84.0753H57.5C56.4167 84.0753 55.875 83.5336 55.875 82.4503V37.5503C55.875 36.467 56.4167 35.9253 57.5 35.9253Z" fill="white"/>
<path d="M74.125 48.3501H84.25C85.3333 48.3501 85.875 48.8918 85.875 49.9751V82.4501C85.875 83.5334 85.3333 84.0751 84.25 84.0751H74.125C73.0417 84.0751 72.5 83.5334 72.5 82.4501V49.9751C72.5 48.8918 73.0417 48.3501 74.125 48.3501Z" fill="white"/>
<defs>
<linearGradient id="paint0_linear_7211_360" x1="-11069.1" y1="110297" x2="-7144.17" y2="139728" gradientUnits="userSpaceOnUse">
<stop stop-color="white"/>
<stop offset="1" stop-color="#D1D3D4"/>
</linearGradient>
</defs>
</svg>
