<svg width="125" height="125" viewBox="0 0 125 125" fill="none" xmlns="http://www.w3.org/2000/svg">
<path d="M125 71.5079C125 105.492 97.0223 125 62.4823 125C27.9777 125 0 105.492 0 71.5079C0 37.559 27.9777 0 62.4823 0C97.0223 0 125 37.559 125 71.5079Z" fill="url(#paint0_linear_7211_348)"/>
<path d="M114.927 67.4032C114.927 95.1386 92.0299 111.072 63.8405 111.072C35.6159 111.072 12.7539 95.1386 12.7539 67.4032C12.7539 39.6332 35.6159 8.94727 63.8405 8.94727C92.0299 8.94727 114.927 39.6332 114.927 67.4032Z" fill="#D1C08B"/>
<path d="M25.3139 95.9354C28.9478 99.3026 33.2521 102.045 38.0502 104.162C34.0282 97.3934 31.8408 86.9102 31.0647 76.0104C24.82 75.8022 18.6811 74.8302 13.4595 74.0665C15.0119 82.9529 19.2456 90.312 25.3139 95.9354ZM12.7539 66.0826C12.7539 68.8596 12.9891 71.5209 13.4595 74.0665C18.6811 74.8302 24.82 75.8022 31.0647 76.0104C30.853 72.9557 30.7471 69.901 30.7471 66.881C30.7471 56.6061 32.2289 44.3178 34.9808 33.3139C30.0062 35.0149 23.7615 36.6811 19.6337 39.0762C15.2588 47.5808 12.7539 56.9879 12.7539 66.0826ZM19.6337 39.0762C23.7615 36.6811 30.0062 35.0149 34.9808 33.3139C36.7096 26.3367 38.9323 19.9149 41.6136 14.8121C37.3799 17.3462 33.4637 20.5744 29.9709 24.2887C25.8783 28.6277 22.3856 33.6611 19.6337 39.0762ZM38.0502 104.162C45.3887 107.356 53.8913 109.057 62.9585 109.057C72.4843 109.057 81.3398 107.217 88.9252 103.711C92.4533 96.9074 93.3353 86.3895 94.0762 76.1493C87.0671 76.7278 80.0344 77.1096 72.9783 77.2948C58.9718 77.6766 45.0359 76.8088 31.0647 76.0104C31.8408 86.9102 34.0282 97.3934 38.0502 104.162ZM30.7471 66.881C30.7471 69.901 30.853 72.9557 31.0647 76.0104C45.0359 76.8088 58.9718 77.6766 72.9783 77.2948C80.0344 77.1096 87.0671 76.7278 94.0762 76.1493C95.5933 62.0907 94.4996 47.0254 90.8304 33.3487C73.0135 28.8707 52.586 27.3087 34.9808 33.3139C32.2289 44.3178 30.7471 56.6061 30.7471 66.881ZM34.9808 33.3139C52.586 27.3087 73.0135 28.8707 90.8304 33.3487C89.2427 27.031 87.8315 20.6091 85.4324 15.4717C78.6585 11.202 71.0378 8.6333 62.9585 8.6333C55.3378 8.6333 48.1053 10.9243 41.6136 14.8121C38.9323 19.9149 36.7096 26.3367 34.9808 33.3139ZM88.9252 103.711C93.3001 101.663 97.2515 99.0596 100.638 95.9354C106.707 90.312 110.94 82.9529 112.493 74.0665C106.377 74.9228 100.239 75.617 94.0762 76.1493C93.3353 86.3895 92.4533 96.9074 88.9252 103.711ZM94.0762 76.1493C100.239 75.617 106.377 74.9228 112.493 74.0665C112.963 71.5209 113.198 68.8596 113.198 66.0826C113.198 56.9879 110.693 47.5808 106.319 39.0762C101.52 36.5422 96.2636 34.7025 90.8304 33.3487C94.4996 47.0254 95.5933 62.0907 94.0762 76.1493ZM90.8304 33.3487C96.2636 34.7025 101.52 36.5422 106.319 39.0762C103.567 33.6611 100.074 28.6277 95.9814 24.2887C92.7708 20.8868 89.2427 17.9016 85.4324 15.4717C87.8315 20.6091 89.2427 27.031 90.8304 33.3487Z" fill="#FFE061"/>
<path d="M73 52.75C72.2917 52.4167 71.9687 51.9688 72.0312 51.4063C72.0937 50.8438 72.3333 50.3958 72.75 50.0625C72.875 49.9792 73.2813 49.6563 73.9688 49.0938C74.6563 48.5313 75.5 47.8542 76.5 47.0625C74.75 45.0625 72.6667 43.4896 70.25 42.3438C67.8333 41.1979 65.2083 40.625 62.375 40.625C59.75 40.625 57.2917 41.1146 55 42.0938C52.7083 43.0729 50.7083 44.4167 49 46.125C47.2917 47.8333 45.9479 49.8333 44.9688 52.125C43.9896 54.4167 43.5 56.875 43.5 59.5C43.5 62.0833 43.9896 64.5208 44.9688 66.8125C45.9479 69.1042 47.2917 71.1042 49 72.8125C50.7083 74.5208 52.7083 75.8646 55 76.8438C57.2917 77.8229 59.75 78.3125 62.375 78.3125C64.5417 78.3125 66.5937 77.9688 68.5312 77.2813C70.4687 76.5938 72.2396 75.625 73.8438 74.375C75.4479 73.125 76.8229 71.6563 77.9688 69.9688C79.1146 68.2813 79.9583 66.4375 80.5 64.4375C80.7917 63.4792 81.3333 62.6875 82.125 62.0625C82.9167 61.4375 83.8542 61.125 84.9375 61.125C86.2292 61.125 87.3229 61.5833 88.2188 62.5C89.1146 63.4167 89.5625 64.5 89.5625 65.75C89.5625 66.3333 89.4583 66.8958 89.25 67.4375C88.375 70.3542 87.0833 73.0417 85.375 75.5C83.6667 77.9583 81.6354 80.0729 79.2812 81.8438C76.9271 83.6146 74.3125 85 71.4375 86C68.5625 87 65.5417 87.5 62.375 87.5C58.5 87.5 54.8542 86.7708 51.4375 85.3125C48.0208 83.8542 45.0521 81.8542 42.5313 79.3125C40.0104 76.7708 38.0104 73.8021 36.5313 70.4063C35.0521 67.0104 34.3125 63.375 34.3125 59.5C34.3125 55.625 35.0521 51.9792 36.5313 48.5625C38.0104 45.1458 40.0104 42.1771 42.5313 39.6562C45.0521 37.1354 48.0208 35.1354 51.4375 33.6563C54.8542 32.1771 58.5 31.4375 62.375 31.4375C66.6667 31.4375 70.6458 32.3229 74.3125 34.0938C77.9792 35.8646 81.1042 38.2708 83.6875 41.3125C84.6458 40.6042 85.4479 39.9896 86.0938 39.4688C86.7396 38.9479 87.1458 38.625 87.3125 38.5C87.5625 38.2917 87.8333 38.1354 88.125 38.0313C88.4167 37.9271 88.6875 37.9271 88.9375 38.0313C89.1875 38.1354 89.4063 38.3542 89.5938 38.6875C89.7813 39.0208 89.9167 39.5208 90 40.1875C90.0417 40.5625 90.0833 41.1979 90.125 42.0938C90.1667 42.9896 90.2083 44.0313 90.25 45.2188C90.2917 46.4063 90.3125 47.6354 90.3125 48.9063C90.3125 50.1771 90.2917 51.375 90.25 52.5C90.2083 53.9167 89.875 54.9375 89.25 55.5625C88.9167 55.8958 88.4167 56.0833 87.75 56.125C87.0833 56.1667 86.375 56.1042 85.625 55.9375C84.5 55.6875 83.2604 55.4167 81.9063 55.125C80.5521 54.8333 79.2604 54.5313 78.0313 54.2188C76.8021 53.9063 75.7188 53.6146 74.7813 53.3438C73.8438 53.0729 73.25 52.875 73 52.75Z" fill="white"/>
<defs>
<linearGradient id="paint0_linear_7211_348" x1="-11069.1" y1="110297" x2="-7144.17" y2="139728" gradientUnits="userSpaceOnUse">
<stop stop-color="white"/>
<stop offset="1" stop-color="#D1D3D4"/>
</linearGradient>
</defs>
</svg>
