<svg width="81" height="81" viewBox="0 0 81 81" fill="none" xmlns="http://www.w3.org/2000/svg">
<path d="M10.048 69.8417C12.9551 72.5354 16.3985 74.7292 20.2371 76.4232C17.0195 71.0081 15.2696 62.6215 14.6486 53.9017C9.65284 53.7351 4.74174 52.9575 0.564493 52.3466C1.80638 59.4557 5.19333 65.343 10.048 69.8417ZM0 45.9595C0 48.1811 0.188164 50.3101 0.564493 52.3466C4.74174 52.9575 9.65284 53.7351 14.6486 53.9017C14.4793 51.4579 14.3946 49.0142 14.3946 46.5982C14.3946 38.3782 15.58 28.5476 17.7815 19.7445C13.8019 21.1052 8.8061 22.4382 5.50381 24.3543C2.00395 31.158 0 38.6837 0 45.9595ZM5.50381 24.3543C8.8061 22.4382 13.8019 21.1052 17.7815 19.7445C19.1645 14.1627 20.9427 9.02528 23.0878 4.94308C19.7008 6.97029 16.5679 9.5529 13.7736 12.5243C10.4996 15.9956 7.70533 20.0222 5.50381 24.3543ZM20.2371 76.4232C26.1078 78.9781 32.9099 80.3388 40.1637 80.3388C47.7843 80.3388 54.8688 78.867 60.9371 76.0622C63.7595 70.6193 64.4651 62.2049 65.0579 54.0128C59.4506 54.4756 53.8244 54.7811 48.1795 54.9292C36.9743 55.2347 25.8256 54.5404 14.6486 53.9017C15.2696 62.6215 17.0195 71.0081 20.2371 76.4232ZM14.3946 46.5982C14.3946 49.0142 14.4793 51.4579 14.6486 53.9017C25.8256 54.5404 36.9743 55.2347 48.1795 54.9292C53.8244 54.7811 59.4506 54.4756 65.0579 54.0128C66.2715 42.7659 65.3965 30.7137 62.4612 19.7723C48.2077 16.19 31.8656 14.9403 17.7815 19.7445C15.58 28.5476 14.3946 38.3782 14.3946 46.5982ZM17.7815 19.7445C31.8656 14.9403 48.2077 16.19 62.4612 19.7723C61.1911 14.7181 60.0621 9.58068 58.1428 5.47071C52.7237 2.05499 46.6271 0 40.1637 0C34.0671 0 28.2811 1.83283 23.0878 4.94308C20.9427 9.02528 19.1645 14.1627 17.7815 19.7445ZM60.9371 76.0622C64.4369 74.4238 67.5981 72.341 70.3076 69.8417C75.1623 65.343 78.5492 59.4557 79.7911 52.3466C74.8988 53.0316 69.9878 53.587 65.0579 54.0128C64.4651 62.2049 63.7595 70.6193 60.9371 76.0622ZM65.0579 54.0128C69.9878 53.587 74.8988 53.0316 79.7911 52.3466C80.1674 50.3101 80.3556 48.1811 80.3556 45.9595C80.3556 38.6837 78.3517 31.158 74.8518 24.3543C71.0132 22.3271 66.8078 20.8553 62.4612 19.7723C65.3965 30.7137 66.2715 42.7659 65.0579 54.0128ZM62.4612 19.7723C66.8078 20.8553 71.0132 22.3271 74.8518 24.3543C72.6503 20.0222 69.8561 15.9956 66.582 12.5243C64.0135 9.80283 61.1911 7.41461 58.1428 5.47071C60.0621 9.58068 61.1911 14.7181 62.4612 19.7723Z" fill="#FED44A"/>
<path d="M64.3802 34.6764C64.2135 33.0931 62.8802 31.9264 61.2969 31.9264H52.1302L49.2135 29.0098L44.6302 24.4264C45.2135 23.6764 45.4635 22.7598 45.4635 21.7598C45.4635 19.2598 43.5469 17.2598 41.0469 17.2598C38.6302 17.2598 36.6302 19.2598 36.6302 21.6764V22.0931C36.7135 22.9264 36.9635 23.6764 37.4635 24.3431L29.9635 31.8431H20.7969C19.0469 31.8431 17.6302 33.2598 17.6302 35.0098V60.8431C17.7135 62.5098 19.1302 63.9264 20.8802 63.9264H61.2969C63.0469 63.9264 64.3802 62.5098 64.3802 60.7598V34.6764ZM34.6302 30.7598L39.5469 25.8431C40.5469 26.2598 41.6302 26.2598 42.7135 25.8431L44.0469 27.1764L48.7135 31.8431H33.5469L34.6302 30.7598ZM24.5469 40.4264H40.1302C41.0469 40.4264 41.7969 41.1764 41.7969 42.0931C41.7969 43.0098 41.0469 43.7598 40.1302 43.7598H24.5469C23.6302 43.7598 22.8802 43.0098 22.8802 42.0931C22.8802 41.1764 23.6302 40.4264 24.5469 40.4264ZM45.3802 55.3431H24.5469C23.6302 55.3431 22.8802 54.5931 22.8802 53.6764C22.8802 52.7598 23.6302 52.0098 24.5469 52.0098H45.4635C46.3802 52.0098 47.1302 52.7598 47.1302 53.6764C47.1302 54.5931 46.2969 55.3431 45.3802 55.3431ZM56.3802 49.5931H24.5469C23.6302 49.5931 22.8802 48.8431 22.8802 47.9264C22.8802 47.0098 23.6302 46.2598 24.5469 46.2598H56.3802C57.2969 46.2598 58.0469 47.0098 58.0469 47.9264C58.0469 48.8431 57.2969 49.5931 56.3802 49.5931Z" fill="white"/>
</svg>
